# xmcd
#
# Track frame offsets: 
#        150
#        12799
#        25007
#        40686
#        58508
#        73608
#        88849
#        105223
#        120386
#        140375
#        157848
#        172135
#        184793
#        199343
#        211915
#        224065
#        239393
#        251955
#        266425
#
# Disc length: 3803 seconds
#
# Revision: 1
# Processed by: cddbd v1.5.1PL2 Copyright (c) Steve Scherf et al.
# Submitted via: ExactAudioCopy v0.95b3
#
DISCID=0a0ed913
DTITLE=Henri Salvador - Chambre avec vue
DYEAR=2001
DGENRE=Vocal
TTITLE0=Jardin d'hiver
TTITLE1=Chambre avec vue
TTITLE2=J'ai vu
TTITLE3=Il fait dimanche
TTITLE4=La muraille de Chine
TTITLE5=Jazz Méditerranée
TTITLE6=Un tour de manège
TTITLE7=Vagabond
TTITLE8=Je sais que tu sais
TTITLE9=Mademoiselle
TTITLE10=Le fou de la Reine
TTITLE11=Faire des ronds dans l'eau
TTITLE12=Aime-moi
TTITLE13=Je reprendrais bien un peu d'amour
TTITLE14=Room with a view
TTITLE15=Jazz dipinto di blu
TTITLE16=Jardim
TTITLE17=Jazz Méditerranée (koop remix)
TTITLE18=All I really want is love
EXTD=
EXTT0=
EXTT1=
EXTT2=
EXTT3=
EXTT4=
EXTT5=
EXTT6=
EXTT7=
EXTT8=
EXTT9=
EXTT10=
EXTT11=
EXTT12=
EXTT13=
EXTT14=
EXTT15=
EXTT16=
EXTT17=
EXTT18=
PLAYORDER=
